<svg preserveAspectRatio="none" width="100%" height="100%" overflow="visible" style="display: block;" viewBox="0 0 45 45" fill="none" xmlns="http://www.w3.org/2000/svg">
<g id="1 57">
<path id="Vector" d="M22.5127 41.0889C33.2471 41.0889 41.9491 32.7073 41.9491 22.3682C41.9491 12.029 33.2471 3.64746 22.5127 3.64746C11.7782 3.64746 3.07617 12.029 3.07617 22.3682C3.07617 32.7073 11.7782 41.0889 22.5127 41.0889Z" fill="url(#paint0_linear_0_10)"/>
<path id="Vector_2" fill-rule="evenodd" clip-rule="evenodd" d="M30.922 10.2287C31.0478 10.23 31.1374 10.2479 31.2421 10.2926C31.322 10.327 31.4405 10.4066 31.5051 10.4698C31.5746 10.5377 31.6441 10.6374 31.6749 10.714C31.7065 10.7924 31.729 10.9071 31.7321 11.0054C31.7352 11.1058 31.72 11.2178 31.6921 11.2998C31.6654 11.3787 31.6052 11.4759 31.5436 11.5402C31.4869 11.5996 31.3849 11.6746 31.3173 11.7072C31.2253 11.7509 31.1423 11.768 30.7825 11.7834L30.4405 12.2432L30.5605 12.4515C30.6267 12.5659 30.7133 12.7429 30.7531 12.8447C30.793 12.9463 30.8497 13.1186 30.879 13.2275C30.9086 13.3364 30.9534 13.5399 30.9787 13.6798C31.004 13.8197 31.0373 14.1106 31.0524 14.3262C31.0681 14.5473 31.0732 14.8982 31.0645 15.1305C31.0555 15.3573 31.0315 15.6891 31.0106 15.8682C30.9897 16.0472 30.9437 16.3573 30.9085 16.5575C30.8733 16.7577 30.8049 17.0852 30.7568 17.2858C30.7086 17.4864 30.5987 17.877 30.5128 18.1542C30.4269 18.4313 30.2749 18.8739 30.1749 19.1377C30.075 19.4015 29.892 19.8394 29.7682 20.111C29.6445 20.3825 29.4659 20.7529 29.3714 20.9342C29.277 21.1155 29.1357 21.3782 29.0573 21.5178C28.979 21.6575 28.7978 21.9605 28.6545 22.1915C28.5113 22.4225 28.29 22.7605 28.1627 22.9429C28.0353 23.1252 27.825 23.4124 27.6953 23.5811C27.5655 23.7498 27.3772 23.9857 27.2767 24.1054C27.1761 24.2251 26.9418 24.4893 26.756 24.6927C26.5702 24.8961 26.2274 25.2479 25.9944 25.4747C25.7614 25.7017 25.3793 26.0576 25.1457 26.2658C24.9122 26.4739 24.5729 26.7666 24.3922 26.9157C24.2112 27.065 24.0307 27.2139 23.9181 27.3055L24.0042 27.2681C24.0515 27.2477 24.4775 27.0446 24.9508 26.817C25.424 26.5895 25.8805 26.3774 25.9653 26.3453C26.0502 26.3135 26.1531 26.2863 26.1942 26.2851C26.2354 26.2838 26.3032 26.2984 26.345 26.3178C26.3867 26.3372 26.4434 26.3943 26.4712 26.4449C26.4987 26.4954 26.5408 26.5979 26.5646 26.6727C26.5881 26.7476 26.6286 26.9257 26.654 27.0692C26.6812 27.2225 26.7057 27.5042 26.7137 27.7534C26.7217 28.0099 26.7152 28.2662 26.6972 28.4027C26.6806 28.5267 26.6484 28.7016 26.6255 28.7916C26.6023 28.8817 26.5511 29.0402 26.5115 29.1445C26.4718 29.2485 26.3735 29.4427 26.293 29.5755C26.2124 29.7082 26.0479 29.9251 25.9271 30.0574C25.8064 30.1896 25.6146 30.3765 25.5011 30.4726C25.3876 30.5689 25.1793 30.7296 25.0381 30.8301C24.897 30.9305 24.677 31.0758 24.5492 31.1531C24.4213 31.2302 24.1729 31.3672 23.9973 31.4572C23.8217 31.5475 23.5394 31.6818 23.3703 31.7559C23.201 31.8303 22.8517 31.9674 22.5939 32.0608C22.336 32.1543 21.9359 32.2851 21.7047 32.3514C21.4734 32.4177 21.1839 32.4929 21.0611 32.5181C20.9384 32.5437 20.7932 32.5654 20.7383 32.5668C20.6782 32.5684 20.6204 32.5528 20.5929 32.5277C20.5636 32.5012 20.5463 32.4503 20.5446 32.3865C20.5434 32.3316 20.5534 32.1068 20.567 31.8868C20.5806 31.6668 20.6207 30.9752 20.6564 30.3496C20.6918 29.7239 20.7254 29.1757 20.731 29.1309C20.7408 29.053 20.7282 29.0391 20.4278 28.8C20.2554 28.6629 19.9763 28.441 19.8074 28.3071C19.6386 28.1731 19.4931 28.0668 19.484 28.0711C19.4748 28.0751 19.3999 28.1593 19.3176 28.2579C19.2353 28.3565 19.0643 28.5752 18.9375 28.7438C18.8108 28.9124 18.6254 29.1764 18.5258 29.3305C18.4261 29.4845 18.2758 29.7305 18.1913 29.8773C18.1071 30.0241 17.9659 30.281 17.8777 30.4484C17.7894 30.6159 17.62 30.9637 17.5016 31.2211C17.3828 31.4786 17.2258 31.8372 17.1526 32.0179C17.0796 32.1986 16.9396 32.5735 16.8419 32.8509C16.744 33.1284 16.5914 33.6047 16.5023 33.9094C16.4135 34.2141 16.2729 34.7462 16.1898 35.0918C16.107 35.4375 16.0046 35.9009 15.9623 36.1218C15.9203 36.3427 15.8535 36.7378 15.8137 36.9997C15.7742 37.2617 15.7152 37.7126 15.6825 38.0018C15.6498 38.291 15.6024 38.7808 15.5773 39.0904C15.5526 39.3998 15.5335 39.6869 15.5353 39.728C15.5373 39.7691 15.5248 39.8164 15.5074 39.8331C15.4832 39.8569 15.4122 39.8391 15.1858 39.7531C15.026 39.6924 14.7416 39.5748 14.5539 39.4918C14.3662 39.4085 13.9729 39.2214 13.6802 39.0758C13.3875 38.9302 12.9479 38.6992 12.7036 38.5623C12.4591 38.4256 12.1159 38.222 11.941 38.1102C11.7659 37.9981 11.3991 37.7478 11.1253 37.5539C10.8516 37.3601 10.4783 37.0865 10.2956 36.9465C10.1128 36.8063 9.78583 36.538 9.56892 36.3501C9.35196 36.1622 9.02351 35.8616 8.83903 35.6822C8.65455 35.5028 8.34016 35.1805 8.14012 34.9661C7.94035 34.7518 7.65303 34.4351 7.50195 34.2624C7.35113 34.0897 7.1165 33.8058 6.98111 33.6317C6.84545 33.4575 6.65596 33.2051 6.5602 33.0709C6.46422 32.9366 6.38864 32.8172 6.39229 32.8056C6.39563 32.7938 6.60406 32.7167 6.85551 32.6343C7.10692 32.5516 7.54009 32.4004 7.81814 32.2982C8.09613 32.196 8.53972 32.0186 8.80387 31.904C9.06803 31.7895 9.45549 31.6118 9.66485 31.509C9.87425 31.4064 10.2335 31.2209 10.4629 31.0969C10.6924 30.9731 11.029 30.7824 11.2108 30.6732C11.3925 30.5643 11.7229 30.3572 11.945 30.2133C12.1671 30.0694 12.5353 29.8206 12.7636 29.6606C12.9919 29.5006 13.3489 29.2422 13.5566 29.0865C13.7644 28.9306 14.1264 28.6489 14.3605 28.4602C14.5949 28.2716 14.9285 27.9917 15.1022 27.8383C15.2758 27.685 15.6359 27.3272 15.9023 27.0435C16.1687 26.7598 16.486 26.4038 16.6075 26.2526C16.7288 26.1014 16.8285 25.969 16.8287 25.9588C16.8291 25.9486 16.5927 25.7508 16.3033 25.5198C16.0139 25.2885 15.7632 25.0962 15.7461 25.0925C15.7293 25.0885 15.4202 25.164 15.0594 25.2603C14.6987 25.3566 14.3146 25.4591 14.2057 25.4885C14.0969 25.5175 13.9187 25.565 13.8098 25.5941C13.7009 25.6231 13.3446 25.7188 13.018 25.8066C12.6914 25.8941 12.4043 25.9606 12.3801 25.9542C12.356 25.9479 12.3135 25.9068 12.2857 25.863C12.2372 25.7865 12.236 25.7663 12.2555 25.3089C12.2669 25.0477 12.2843 24.7271 12.2948 24.5965C12.3052 24.466 12.3317 24.1954 12.3534 23.9959C12.3751 23.7963 12.4159 23.4947 12.4439 23.3256C12.4718 23.1566 12.5246 22.8912 12.5612 22.7357C12.5978 22.5801 12.6695 22.3111 12.7205 22.1382C12.7718 21.9649 12.8726 21.6756 12.9448 21.4949C13.017 21.3143 13.1356 21.0524 13.2082 20.9129C13.2807 20.7734 13.4027 20.5655 13.4792 20.4511C13.5557 20.3364 13.6834 20.1648 13.7627 20.0693C13.8421 19.974 13.9891 19.8217 14.089 19.7308C14.1893 19.6401 14.3591 19.5096 14.4668 19.4406C14.5744 19.3719 14.7567 19.2719 14.8715 19.2187C14.9864 19.1654 15.1919 19.0897 15.3279 19.0506C15.4639 19.0114 15.7092 18.9573 15.8731 18.931C16.0826 18.8971 16.3039 18.8817 16.62 18.8789C16.97 18.876 17.0899 18.8837 17.1638 18.9141C17.2158 18.9354 17.2821 18.9888 17.3109 19.0325C17.3395 19.0763 17.364 19.1429 17.3654 19.1805C17.3666 19.2182 17.313 19.4614 17.2462 19.7207C17.1797 19.98 17.0547 20.4639 16.9688 20.7959C16.8828 21.1279 16.8148 21.4026 16.8178 21.4064C16.8209 21.4101 16.8968 21.273 16.9865 21.1018C17.076 20.9303 17.2792 20.556 17.4379 20.2699C17.5967 19.9837 17.8654 19.5263 18.0348 19.2533C18.2043 18.9803 18.5045 18.5276 18.7022 18.247C18.8998 17.9664 19.183 17.5813 19.3318 17.3916C19.4803 17.2018 19.7234 16.9021 19.8722 16.7261C20.0206 16.5498 20.3423 16.1975 20.5864 15.9429C20.8307 15.6883 21.1943 15.3309 21.3945 15.1487C21.5944 14.9664 21.8949 14.7038 22.0623 14.5651C22.2296 14.4264 22.5145 14.2012 22.6954 14.0644C22.8763 13.9278 23.1731 13.7162 23.3544 13.5943C23.5357 13.4724 23.7836 13.3122 23.9048 13.2384C24.026 13.1642 24.3296 12.9968 24.5793 12.866C24.829 12.735 25.1886 12.5619 25.3782 12.4807C25.5678 12.3997 25.8784 12.277 26.0684 12.2082C26.2583 12.1392 26.5388 12.0451 26.6918 11.9987C26.8448 11.9523 27.1064 11.883 27.2733 11.8444C27.4403 11.8058 27.7109 11.7517 27.8747 11.7244C28.0385 11.6971 28.3688 11.6621 28.6083 11.6467C28.8882 11.6288 29.1247 11.6269 29.2693 11.6416C29.3932 11.6539 29.5872 11.6916 29.9063 11.7857L30.2264 11.3266L30.1949 11.2216C30.1779 11.1637 30.162 11.0632 30.1598 10.9982C30.1575 10.9331 30.1723 10.8174 30.1924 10.7414C30.2211 10.6342 30.2597 10.5709 30.3648 10.4608C30.4569 10.3646 30.5404 10.3039 30.624 10.2729C30.7054 10.2426 30.8067 10.2275 30.922 10.2287ZM24.8539 16.4813C24.7863 16.5154 24.6626 16.5973 24.5789 16.6635C24.4951 16.7298 24.3784 16.8501 24.319 16.9309C24.2599 17.0115 24.1806 17.1405 24.143 17.217C24.1052 17.2935 24.0578 17.4297 24.0374 17.5197C24.0151 17.6194 24.0037 17.7752 24.0089 17.9198C24.0137 18.0564 24.0362 18.2193 24.062 18.3048C24.0868 18.3864 24.1423 18.5194 24.1855 18.6004C24.2287 18.6814 24.3147 18.808 24.3766 18.8814C24.4386 18.9548 24.5511 19.0601 24.6267 19.1152C24.7025 19.1702 24.8326 19.2465 24.9161 19.2846C24.9997 19.3229 25.1358 19.3698 25.2188 19.3889C25.3027 19.4083 25.4718 19.4204 25.6001 19.4167C25.727 19.413 25.8891 19.396 25.9607 19.3788C26.0323 19.3616 26.1792 19.3021 26.2873 19.2469C26.4014 19.1882 26.5438 19.0882 26.6273 19.0078C26.7061 18.9317 26.8227 18.7834 26.8861 18.6786C26.9494 18.5736 27.0213 18.4199 27.0456 18.3368C27.07 18.2537 27.0976 18.1069 27.1071 18.0105C27.1177 17.902 27.1128 17.7599 27.0937 17.6367C27.0771 17.5275 27.0278 17.3548 26.9845 17.2534C26.9409 17.1517 26.8472 16.9947 26.7758 16.9044C26.7043 16.814 26.5798 16.6916 26.4991 16.6325C26.4184 16.5734 26.284 16.4942 26.2005 16.4566C26.117 16.4188 25.9808 16.3727 25.8979 16.354C25.8076 16.3334 25.6469 16.3234 25.4979 16.3285C25.3605 16.3336 25.1876 16.3559 25.1127 16.3787C25.0378 16.4012 24.9215 16.4475 24.8539 16.4813Z" fill="white"/>
<path id="Vector_3" d="M23.0908 7.02936C23.0173 7.09954 22.8328 7.23647 22.6808 7.33373C22.5289 7.43102 22.2829 7.56255 22.1338 7.62614C21.9847 7.68955 21.7799 7.76856 21.6785 7.80166C21.5771 7.83453 21.3507 7.89548 21.1754 7.93661C20.9607 7.98715 20.7174 8.02459 20.4295 8.05122L20.0021 8.09081C20.0046 8.20556 20.0433 8.26906 20.13 8.36644C20.1989 8.44356 20.3157 8.60515 20.39 8.72587C20.464 8.84663 20.5774 9.05871 20.6419 9.19731C20.7065 9.33587 20.8026 9.58047 20.8556 9.74087C20.9304 9.96666 20.966 10.1307 21.0144 10.4695C21.0637 10.8156 21.0735 10.9534 21.0611 11.1305C21.0524 11.2536 21.0535 11.373 21.0634 11.3955C21.0734 11.4188 21.105 11.434 21.136 11.4308C21.1662 11.4274 21.251 11.3673 21.3246 11.2974C21.3981 11.2271 21.5826 11.0902 21.7346 10.993C21.8865 10.8957 22.1326 10.7642 22.2816 10.7006C22.4307 10.6372 22.6355 10.5581 22.737 10.525C22.8384 10.4922 23.0647 10.4312 23.24 10.3901C23.4547 10.3396 23.698 10.3021 23.9859 10.2755L24.4133 10.2359C24.4108 10.1211 24.3721 10.0576 24.2854 9.96029C24.2165 9.88312 24.0997 9.72154 24.0254 9.60082C23.9514 9.48006 23.838 9.26798 23.7736 9.12937C23.7089 8.99082 23.6128 8.74622 23.5598 8.58586C23.4851 8.36007 23.4494 8.19602 23.401 7.8572C23.3517 7.51109 23.3419 7.37328 23.3544 7.19618C23.363 7.07304 23.3619 6.95373 23.352 6.93119C23.342 6.90785 23.3104 6.89265 23.2795 6.8959C23.2492 6.89928 23.1644 6.9594 23.0908 7.02936ZM18.794 8.86957C18.7135 8.93883 18.5798 9.03208 18.4965 9.07673C18.4132 9.12138 18.2543 9.19002 18.1435 9.22961C17.9931 9.28327 17.8305 9.31658 17.5043 9.36013C17.1428 9.40865 17.0632 9.4257 17.0465 9.45918C17.0318 9.48893 17.0442 9.52233 17.0924 9.5843C17.1289 9.63053 17.2245 9.77229 17.3054 9.89895C17.386 10.0256 17.4847 10.2144 17.5245 10.3185C17.5643 10.4226 17.6184 10.6164 17.6449 10.7492C17.6716 10.8836 17.6938 11.0832 17.6948 11.2001C17.6959 11.3152 17.704 11.4226 17.7127 11.4387C17.7214 11.4547 17.7449 11.4659 17.7651 11.4636C17.7854 11.4614 17.865 11.4058 17.9425 11.3401C18.02 11.2741 18.1564 11.1798 18.2459 11.1303C18.3353 11.0805 18.4994 11.0078 18.6102 10.9685C18.7593 10.9157 18.9262 10.8819 19.2496 10.8387C19.6111 10.7902 19.6906 10.7731 19.7073 10.7397C19.722 10.7099 19.7096 10.6765 19.6614 10.6145C19.6249 10.5683 19.5293 10.4265 19.4484 10.2999C19.3678 10.1732 19.2691 9.98442 19.2293 9.88031C19.1895 9.77621 19.1354 9.58241 19.1089 9.44965C19.0822 9.31522 19.06 9.11558 19.059 8.99873C19.0579 8.88337 19.0498 8.77619 19.0411 8.76015C19.0324 8.74411 19.0061 8.73395 18.9827 8.73734C18.9595 8.74068 18.8746 8.80031 18.794 8.86957Z" fill="white"/>
</g>
<defs>
<linearGradient id="paint0_linear_0_10" x1="34.4531" y1="6.94336" x2="1.49414" y2="49.856" gradientUnits="userSpaceOnUse">
<stop stop-color="#3873FF"/>
<stop offset="0.175129" stop-color="#3F78FF" stop-opacity="0.964408"/>
<stop offset="0.332832" stop-color="#477EFF" stop-opacity="0.925915"/>
<stop offset="0.432089" stop-color="#5487FF" stop-opacity="0.862055"/>
<stop offset="0.556746" stop-color="#6895FF" stop-opacity="0.766754"/>
<stop offset="1" stop-color="#DCE6FF" stop-opacity="0.2"/>
</linearGradient>
</defs>
</svg>
